<svg width="165" height="56" viewBox="0 0 165 56" fill="none" xmlns="http://www.w3.org/2000/svg">
<g clip-path="url(#clip0_3122_705)">
<mask id="mask0_3122_705" style="mask-type:luminance" maskUnits="userSpaceOnUse" x="0" y="0" width="165" height="56">
<path d="M164.041 0.827148H0.597588V55.4613H164.041V0.827148Z" fill="white"/>
</mask>
<g mask="url(#mask0_3122_705)">
<path d="M151.026 0.827151H13.6206C13.1197 0.827151 12.6249 0.827151 12.1253 0.829883C11.7072 0.832614 11.2923 0.84055 10.8702 0.847229C9.95302 0.858022 9.03803 0.938708 8.13314 1.08859C7.22952 1.24173 6.35421 1.53044 5.53682 1.94498C4.72042 2.36301 3.97446 2.90621 3.32598 3.55486C2.67409 4.20168 2.1307 4.94933 1.7167 5.76903C1.30155 6.58711 1.01368 7.46375 0.863041 8.36869C0.710968 9.27247 0.629137 10.1867 0.61828 11.1031C0.605605 11.5219 0.604267 11.9421 0.597588 12.3609V43.9316C0.604267 44.3557 0.605605 44.7665 0.61828 45.1908C0.62914 46.1071 0.710972 47.0213 0.863041 47.9251C1.01327 48.8305 1.30115 49.7076 1.7167 50.5261C2.13053 51.3431 2.67399 52.0878 3.32598 52.731C3.97198 53.3825 4.71844 53.9261 5.53682 54.3409C6.35421 54.7565 7.22942 55.0469 8.13314 55.2025C9.03818 55.3512 9.95308 55.4319 10.8702 55.444C11.2923 55.4532 11.7072 55.4586 12.1253 55.4586C12.6248 55.4613 13.1197 55.4613 13.6206 55.4613H151.026C151.516 55.4613 152.015 55.4613 152.506 55.4586C152.922 55.4586 153.349 55.4532 153.766 55.444C154.681 55.4325 155.593 55.3518 156.497 55.2025C157.403 55.0458 158.283 54.7556 159.104 54.3409C159.92 53.9258 160.666 53.3822 161.312 52.731C161.962 52.0852 162.507 51.3412 162.927 50.5261C163.339 49.7071 163.623 48.8299 163.772 47.9251C163.924 47.0211 164.008 46.1073 164.025 45.1908C164.03 44.7665 164.03 44.3557 164.03 43.9316C164.041 43.4354 164.041 42.9419 164.041 42.4376V13.8521C164.041 13.3519 164.041 12.8557 164.03 12.3609C164.03 11.9421 164.03 11.5219 164.025 11.1031C164.008 10.1866 163.924 9.27254 163.772 8.36863C163.623 7.46422 163.338 6.58764 162.927 5.76897C162.082 4.12595 160.747 2.78855 159.104 1.94486C158.283 1.53135 157.403 1.2427 156.497 1.08847C155.595 0.937926 154.681 0.85721 153.766 0.847038C153.349 0.840372 152.922 0.832368 152.506 0.829705C152.015 0.826973 151.516 0.827151 151.026 0.827151Z" fill="#A6A6A6"/>
<path d="M12.1321 54.2659C11.7159 54.2659 11.3098 54.2606 10.8969 54.2513C10.0416 54.2401 9.18828 54.1657 8.34397 54.0285C7.55667 53.8929 6.79399 53.6406 6.0811 53.2802C5.37474 52.9226 4.73048 52.4537 4.173 51.8917C3.60746 51.336 3.13661 50.6917 2.77914 49.9842C2.41772 49.2721 2.16759 48.5087 2.03748 47.7207C1.89696 46.8741 1.82094 46.0179 1.81006 45.1598C1.8014 44.8717 1.79006 43.9126 1.79006 43.9126V12.3606C1.79006 12.3606 1.80214 11.4162 1.81013 11.1388C1.82054 10.2819 1.89612 9.42715 2.03622 8.5818C2.16658 7.79168 2.41688 7.02612 2.77851 6.31161C3.13467 5.60452 3.6029 4.95973 4.16504 4.40222C4.72654 3.8394 5.37286 3.36816 6.08043 3.00567C6.79169 2.64629 7.55292 2.39585 8.33862 2.26273C9.18571 2.12418 10.042 2.04928 10.9003 2.03865L12.1327 2.02197H152.5L153.747 2.03932C154.598 2.04943 155.446 2.12366 156.284 2.26139C157.078 2.39618 157.848 2.64837 158.567 3.00968C159.985 3.74019 161.139 4.89595 161.865 6.31495C162.222 7.02452 162.468 7.78384 162.597 8.56713C162.738 9.41942 162.817 10.2809 162.834 11.1448C162.838 11.5316 162.838 11.9471 162.838 12.3606C162.849 12.8728 162.849 13.3603 162.849 13.8518V42.4373C162.849 42.9336 162.849 43.4178 162.838 43.9059C162.838 44.3501 162.838 44.757 162.832 45.1757C162.817 46.0241 162.739 46.8702 162.599 47.7074C162.472 48.5009 162.223 49.2703 161.861 49.9883C161.502 50.6882 161.034 51.3269 160.475 51.881C159.916 52.4462 159.272 52.9177 158.563 53.2776C157.846 53.6409 157.078 53.894 156.284 54.0285C155.44 54.1664 154.587 54.2408 153.732 54.2513C153.331 54.2606 152.914 54.2659 152.506 54.2659L151.026 54.2686L12.1321 54.2659Z" fill="black"/>
<path d="M34.4285 28.5548C34.4431 27.4148 34.7459 26.297 35.3088 25.3055C35.8715 24.3139 36.676 23.4808 37.6472 22.8837C37.0301 22.0026 36.2162 21.2773 35.2698 20.7658C34.3236 20.2541 33.271 19.9703 32.1958 19.9366C29.9023 19.6959 27.6787 21.3091 26.5099 21.3091C25.3185 21.3091 23.519 19.9605 21.5812 20.0004C20.3278 20.0409 19.1063 20.4053 18.0356 21.0584C16.9649 21.7114 16.0816 22.6305 15.4719 23.7263C12.8303 28.2997 14.8007 35.0212 17.3311 38.718C18.5971 40.5282 20.0768 42.5503 22.0127 42.4786C23.9073 42.4001 24.6148 41.2705 26.9016 41.2705C29.1673 41.2705 29.8311 42.4786 31.8064 42.433C33.8394 42.4 35.1201 40.6148 36.3417 38.7874C37.2514 37.4975 37.9514 36.072 38.4157 34.5635C37.2346 34.0639 36.2267 33.2278 35.5177 32.1593C34.8087 31.0908 34.4298 29.8372 34.4285 28.5548Z" fill="white"/>
<path d="M30.6973 17.505C31.8059 16.1744 32.3519 14.464 32.2196 12.7373C30.5262 12.9152 28.962 13.7246 27.8386 15.0041C27.2893 15.6293 26.8686 16.3564 26.6006 17.1443C26.3325 17.9319 26.2224 18.7648 26.2765 19.5953C27.1234 19.604 27.9614 19.4205 28.7272 19.0584C29.4929 18.6963 30.1666 18.1651 30.6973 17.505Z" fill="white"/>
<path d="M58.3766 37.8957H51.9115L50.3589 42.4802H47.6205L53.7442 25.519H56.5893L62.7129 42.4802H59.9278L58.3766 37.8957ZM52.581 35.7803H57.7057L55.1794 28.3401H55.1088L52.581 35.7803Z" fill="white"/>
<path d="M75.9379 36.2983C75.9379 40.1411 73.8812 42.61 70.7773 42.61C69.9912 42.6512 69.2092 42.47 68.5211 42.0875C67.833 41.7048 67.2666 41.1362 66.8866 40.4465H66.8278V46.5716H64.2895V30.1147H66.7466V32.1714H66.7931C67.1906 31.4852 67.7666 30.9194 68.4599 30.5344C69.1533 30.1495 69.938 29.9596 70.7306 29.9852C73.8692 29.9852 75.9379 32.4661 75.9379 36.2983ZM73.329 36.2983C73.329 33.7947 72.0352 32.1487 70.0611 32.1487C68.1217 32.1487 66.8172 33.8294 66.8172 36.2983C66.8172 38.7899 68.1217 40.4586 70.0611 40.4586C72.0352 40.4586 73.329 38.8246 73.329 36.2983Z" fill="white"/>
<path d="M89.5486 36.2983C89.5486 40.1411 87.4917 42.61 84.388 42.61C83.6016 42.6512 82.8197 42.47 82.1316 42.0875C81.4435 41.7048 80.877 41.1362 80.4971 40.4465H80.4383V46.5716H77.9V30.1147H80.3571V32.1714H80.4036C80.8011 31.485 81.3771 30.9194 82.0705 30.5344C82.7638 30.1495 83.5485 29.9596 84.3413 29.9852C87.4797 29.9852 89.5486 32.4661 89.5486 36.2983ZM86.9395 36.2983C86.9395 33.7947 85.6458 32.1487 83.6716 32.1487C81.7322 32.1487 80.4277 33.8294 80.4277 36.2983C80.4277 38.7899 81.7322 40.4586 83.6716 40.4586C85.6458 40.4586 86.9395 38.8246 86.9395 36.2983Z" fill="white"/>
<path d="M98.5439 37.7545C98.732 39.4364 100.366 40.5409 102.599 40.5409C104.738 40.5409 106.278 39.4364 106.278 37.9198C106.278 36.6032 105.349 35.815 103.151 35.2748L100.953 34.7453C97.8383 33.993 96.3924 32.5364 96.3924 30.1728C96.3924 27.2463 98.9428 25.2363 102.564 25.2363C106.148 25.2363 108.605 27.2463 108.688 30.1728H106.126C105.972 28.4802 104.573 27.4584 102.528 27.4584C100.483 27.4584 99.0841 28.4923 99.0841 29.9967C99.0841 31.196 99.9778 31.9016 102.164 32.4416L104.033 32.9005C107.513 33.7235 108.959 35.1214 108.959 37.6022C108.959 40.7755 106.431 42.763 102.411 42.763C98.6492 42.763 96.1097 40.8222 95.9455 37.7544L98.5439 37.7545Z" fill="white"/>
<path d="M114.437 27.188V30.1145H116.788V32.1245H114.437V38.9417C114.437 40.0008 114.908 40.4944 115.941 40.4944C116.22 40.4895 116.499 40.4698 116.776 40.4357V42.4338C116.311 42.5205 115.839 42.5599 115.366 42.5511C112.863 42.5511 111.886 41.6107 111.886 39.2126V32.1245H110.088V30.1145H111.886V27.188H114.437Z" fill="white"/>
<path d="M118.15 36.2977C118.15 32.4069 120.442 29.9619 124.015 29.9619C127.6 29.9619 129.881 32.4068 129.881 36.2977C129.881 40.1991 127.612 42.6335 124.015 42.6335C120.419 42.6335 118.15 40.1991 118.15 36.2977ZM127.295 36.2977C127.295 33.6287 126.072 32.0534 124.015 32.0534C121.958 32.0534 120.736 33.6407 120.736 36.2977C120.736 38.9774 121.958 40.5406 124.015 40.5406C126.072 40.5406 127.295 38.9774 127.295 36.2977Z" fill="white"/>
<path d="M131.974 30.1145H134.395V32.2193H134.454C134.618 31.5619 135.003 30.981 135.544 30.5741C136.086 30.1673 136.751 29.9592 137.427 29.9851C137.721 29.9841 138.012 30.0158 138.298 30.0798V32.4541C137.929 32.3412 137.544 32.2894 137.157 32.3007C136.789 32.2857 136.421 32.3507 136.08 32.4913C135.738 32.6318 135.432 32.8445 135.18 33.1148C134.929 33.3851 134.739 33.7066 134.624 34.0571C134.509 34.4077 134.471 34.7791 134.512 35.1458V42.4806H131.974V30.1145Z" fill="white"/>
<path d="M150.002 38.848C149.66 41.0928 147.473 42.6335 144.676 42.6335C141.078 42.6335 138.847 40.2232 138.847 36.3564C138.847 32.4775 141.091 29.9619 144.57 29.9619C147.991 29.9619 150.142 32.3121 150.142 36.0615V36.9313H141.409V37.0847C141.368 37.5398 141.425 37.9982 141.576 38.4297C141.726 38.861 141.966 39.2555 142.282 39.5867C142.596 39.918 142.977 40.1786 143.4 40.3511C143.824 40.5237 144.279 40.6041 144.735 40.5873C145.334 40.6436 145.937 40.5047 146.452 40.1912C146.965 39.8779 147.365 39.4068 147.591 38.848H150.002ZM141.42 35.1572H147.603C147.625 34.748 147.563 34.3385 147.42 33.9544C147.278 33.5704 147.057 33.22 146.771 32.9253C146.487 32.6305 146.144 32.3979 145.766 32.2419C145.386 32.086 144.979 32.0099 144.57 32.0188C144.156 32.0163 143.746 32.0957 143.363 32.2525C142.981 32.4091 142.634 32.6401 142.34 32.9318C142.048 33.2236 141.816 33.5705 141.658 33.9525C141.5 34.3344 141.42 34.7439 141.42 35.1572Z" fill="white"/>
<path d="M52.2627 12.7519C52.7948 12.7137 53.3287 12.7941 53.8262 12.9873C54.3235 13.1805 54.7717 13.4816 55.1385 13.869C55.5053 14.2565 55.7816 14.7204 55.9475 15.2275C56.1133 15.7346 56.1645 16.2722 56.0974 16.8015C56.0974 19.4052 54.6902 20.9018 52.2627 20.9018H49.3188V12.7519H52.2627ZM50.5846 19.7492H52.1212C52.5015 19.7719 52.8821 19.7096 53.2351 19.5666C53.5882 19.4238 53.9051 19.204 54.1626 18.9232C54.42 18.6424 54.6117 18.3077 54.7234 17.9436C54.8352 17.5795 54.8645 17.195 54.8089 16.8181C54.8604 16.4427 54.8283 16.0606 54.7148 15.6991C54.6011 15.3375 54.4091 15.0056 54.1522 14.7271C53.8954 14.4486 53.58 14.2304 53.229 14.0879C52.8778 13.9456 52.4995 13.8826 52.1212 13.9037H50.5846V19.7492Z" fill="white"/>
<path d="M57.5274 17.824C57.4887 17.4197 57.5349 17.012 57.6631 16.6267C57.7913 16.2414 57.9986 15.8872 58.2716 15.5867C58.5448 15.2862 58.8777 15.0463 59.2489 14.8819C59.6203 14.7176 60.0218 14.6328 60.4278 14.6328C60.8338 14.6328 61.2354 14.7176 61.6066 14.8819C61.978 15.0463 62.3109 15.2862 62.5839 15.5867C62.8571 15.8872 63.0643 16.2414 63.1925 16.6267C63.3206 17.012 63.3669 17.4197 63.3283 17.824C63.3676 18.2286 63.322 18.6369 63.1942 19.0228C63.0663 19.4087 62.8591 19.7635 62.5859 20.0645C62.3128 20.3657 61.9796 20.6062 61.608 20.7708C61.2363 20.9355 60.8344 21.0205 60.4278 21.0205C60.0213 21.0205 59.6193 20.9355 59.2477 20.7708C58.8759 20.6062 58.5427 20.3657 58.2696 20.0645C57.9965 19.7635 57.7893 19.4087 57.6615 19.0228C57.5337 18.6369 57.488 18.2286 57.5274 17.824ZM62.0798 17.824C62.0798 16.4908 61.4808 15.7112 60.4298 15.7112C59.3747 15.7112 58.7812 16.4908 58.7812 17.824C58.7812 19.1679 59.3748 19.9415 60.4298 19.9415C61.4808 19.9413 62.0798 19.1624 62.0798 17.824Z" fill="white"/>
<path d="M71.0391 20.9018H69.78L68.5088 16.3721H68.4128L67.1469 20.9018H65.8998L64.2045 14.7515H65.4356L66.5373 19.4445H66.6282L67.8925 14.7515H69.0571L70.3216 19.4445H70.4176L71.514 14.7515H72.7278L71.0391 20.9018Z" fill="white"/>
<path d="M74.1536 14.7517H75.3221V15.7288H75.4128C75.5666 15.3778 75.8263 15.0837 76.1551 14.8873C76.4842 14.6909 76.8662 14.602 77.2481 14.633C77.5474 14.6105 77.8478 14.6557 78.1273 14.7651C78.4068 14.8745 78.6581 15.0453 78.8625 15.265C79.067 15.4847 79.2193 15.7475 79.3084 16.0341C79.3974 16.3208 79.4209 16.6237 79.3769 16.9205V20.902H78.1632V17.2254C78.1632 16.2369 77.7337 15.7455 76.836 15.7455C76.6328 15.7359 76.43 15.7706 76.2415 15.8468C76.0528 15.923 75.8831 16.0391 75.7435 16.1872C75.604 16.3353 75.4982 16.5117 75.4333 16.7044C75.3684 16.8973 75.3459 17.1018 75.3675 17.3041V20.9021H74.1536V14.7517Z" fill="white"/>
<path d="M81.3111 12.3506H82.5248V20.9018H81.3111V12.3506Z" fill="white"/>
<path d="M84.2122 17.824C84.1735 17.4198 84.2198 17.012 84.3479 16.6267C84.4762 16.2415 84.6835 15.8872 84.9566 15.5867C85.2297 15.2862 85.5626 15.0463 85.934 14.8819C86.3053 14.7176 86.7069 14.6328 87.113 14.6328C87.519 14.6328 87.9206 14.7176 88.2918 14.8819C88.6632 15.0463 88.9961 15.2862 89.2693 15.5867C89.5424 15.8872 89.7496 16.2415 89.8779 16.6267C90.0061 17.012 90.0523 17.4198 90.0136 17.824C90.0531 18.2287 90.0074 18.6371 89.8795 19.0229C89.7515 19.4088 89.5443 19.7636 89.2712 20.0647C88.998 20.3657 88.6649 20.6064 88.2932 20.771C87.9214 20.9355 87.5195 21.0206 87.113 21.0206C86.7064 21.0206 86.3044 20.9355 85.9327 20.771C85.561 20.6064 85.2278 20.3657 84.9547 20.0647C84.6815 19.7636 84.4743 19.4088 84.3464 19.0229C84.2186 18.6371 84.1728 18.2287 84.2122 17.824ZM88.7646 17.824C88.7646 16.4909 88.1656 15.7113 87.1146 15.7113C86.0595 15.7113 85.466 16.4909 85.466 17.8241C85.466 19.1679 86.0596 19.9415 87.1146 19.9415C88.1656 19.9415 88.7646 19.1625 88.7646 17.824Z" fill="white"/>
<path d="M91.2915 19.1625C91.2915 18.0554 92.1158 17.4171 93.5791 17.3264L95.245 17.2304V16.6996C95.245 16.05 94.8156 15.6832 93.9858 15.6832C93.3082 15.6832 92.8388 15.9319 92.7041 16.3668H91.5289C91.6529 15.3104 92.6467 14.6328 94.0419 14.6328C95.5839 14.6328 96.4535 15.4004 96.4535 16.6996V20.9018H95.285V20.0375H95.189C94.9941 20.3475 94.7204 20.6004 94.3958 20.77C94.0712 20.9396 93.7075 21.0201 93.3417 21.0032C93.0834 21.0301 92.8225 21.0025 92.5756 20.9223C92.3286 20.8421 92.1013 20.7111 91.9082 20.5377C91.7151 20.3642 91.5603 20.1522 91.4542 19.9154C91.3479 19.6785 91.2925 19.422 91.2915 19.1625ZM95.245 18.637V18.1227L93.7431 18.2189C92.8961 18.2755 92.5119 18.5636 92.5119 19.1058C92.5119 19.6593 92.9922 19.9815 93.6524 19.9815C93.846 20.001 94.0414 19.9815 94.2272 19.924C94.4129 19.8665 94.5851 19.7722 94.7338 19.6469C94.8824 19.5213 95.0042 19.3673 95.092 19.1938C95.1798 19.0203 95.2319 18.831 95.245 18.637Z" fill="white"/>
<path d="M98.0486 17.824C98.0486 15.8807 99.0478 14.6495 100.602 14.6495C100.986 14.6317 101.368 14.7238 101.701 14.9149C102.035 15.1059 102.308 15.3881 102.488 15.7285H102.578V12.3506H103.792V20.9018H102.629V19.9301H102.533C102.34 20.2682 102.057 20.5468 101.717 20.736C101.377 20.9252 100.991 21.0175 100.602 21.0032C99.0371 21.0033 98.0486 19.7721 98.0486 17.824ZM99.3025 17.824C99.3025 19.1285 99.9174 19.9135 100.946 19.9135C101.969 19.9135 102.601 19.1172 102.601 17.8293C102.601 16.5475 101.962 15.7398 100.946 15.7398C99.9241 15.7398 99.3025 16.5301 99.3025 17.824Z" fill="white"/>
<path d="M108.814 17.824C108.776 17.4197 108.822 17.012 108.95 16.6267C109.078 16.2414 109.285 15.8872 109.558 15.5867C109.832 15.2862 110.164 15.0463 110.536 14.8819C110.907 14.7176 111.309 14.6328 111.715 14.6328C112.121 14.6328 112.522 14.7176 112.894 14.8819C113.265 15.0463 113.598 15.2862 113.871 15.5867C114.144 15.8872 114.351 16.2414 114.479 16.6267C114.607 17.012 114.654 17.4197 114.615 17.824C114.654 18.2286 114.609 18.6369 114.481 19.0228C114.353 19.4087 114.146 19.7635 113.873 20.0645C113.6 20.3657 113.266 20.6062 112.895 20.7708C112.523 20.9355 112.121 21.0205 111.715 21.0205C111.308 21.0205 110.906 20.9355 110.534 20.7708C110.163 20.6062 109.83 20.3657 109.557 20.0645C109.283 19.7635 109.076 19.4087 108.948 19.0228C108.82 18.6369 108.775 18.2286 108.814 17.824ZM113.367 17.824C113.367 16.4908 112.768 15.7112 111.717 15.7112C110.662 15.7112 110.068 16.4908 110.068 17.824C110.068 19.1679 110.662 19.9415 111.717 19.9415C112.768 19.9413 113.367 19.1624 113.367 17.824Z" fill="white"/>
<path d="M116.244 14.7517H117.412V15.7288H117.503C117.657 15.3778 117.916 15.0837 118.245 14.8873C118.574 14.6909 118.956 14.602 119.338 14.633C119.637 14.6105 119.938 14.6557 120.217 14.7651C120.497 14.8745 120.748 15.0453 120.953 15.265C121.157 15.4847 121.309 15.7475 121.398 16.0341C121.488 16.3208 121.511 16.6237 121.467 16.9205V20.902H120.253V17.2254C120.253 16.2369 119.824 15.7455 118.926 15.7455C118.723 15.7359 118.52 15.7706 118.331 15.8468C118.143 15.923 117.973 16.0391 117.834 16.1872C117.694 16.3353 117.588 16.5117 117.523 16.7044C117.458 16.8973 117.436 17.1018 117.457 17.3041V20.9021H116.244V14.7517Z" fill="white"/>
<path d="M128.326 13.2202V14.7795H129.658V15.8018H128.326V18.9644C128.326 19.6086 128.591 19.8908 129.195 19.8908C129.35 19.8902 129.505 19.8809 129.658 19.8628V20.8738C129.44 20.9128 129.219 20.9335 128.998 20.9358C127.648 20.9358 127.11 20.461 127.11 19.2752V15.8018H126.134V14.7795H127.11V13.2202H128.326Z" fill="white"/>
<path d="M131.316 12.3506H132.519V15.7398H132.615C132.777 15.3857 133.043 15.0898 133.379 14.8927C133.714 14.6955 134.103 14.6066 134.491 14.6381C134.788 14.6219 135.086 14.6716 135.362 14.7837C135.638 14.8957 135.886 15.0674 136.089 15.2864C136.291 15.5055 136.443 15.7663 136.533 16.0506C136.622 16.3349 136.648 16.6356 136.609 16.931V20.9018H135.394V17.2304C135.394 16.2481 134.936 15.7505 134.079 15.7505C133.87 15.7334 133.66 15.7621 133.464 15.8346C133.267 15.907 133.089 16.0215 132.942 16.1701C132.794 16.3186 132.681 16.4975 132.61 16.6944C132.539 16.8913 132.511 17.1013 132.53 17.3098V20.9018H131.316V12.3506Z" fill="white"/>
<path d="M143.686 19.2413C143.521 19.8034 143.164 20.2896 142.676 20.6148C142.189 20.9402 141.603 21.0837 141.021 21.0206C140.615 21.0313 140.212 20.9537 139.841 20.7932C139.468 20.6327 139.136 20.393 138.866 20.091C138.595 19.789 138.394 19.4317 138.276 19.0441C138.157 18.6565 138.124 18.2477 138.18 17.8461C138.125 17.4433 138.16 17.0337 138.277 16.6448C138.396 16.256 138.595 15.8972 138.864 15.5924C139.133 15.2877 139.465 15.0443 139.835 14.8788C140.207 14.7132 140.61 14.6294 141.016 14.6329C142.727 14.6329 143.76 15.8021 143.76 17.7334V18.1568H139.416V18.2248C139.397 18.4506 139.426 18.6778 139.499 18.8919C139.573 19.106 139.692 19.3022 139.845 19.4682C139.999 19.634 140.186 19.7659 140.395 19.8553C140.603 19.9446 140.828 19.9894 141.054 19.9868C141.345 20.0218 141.638 19.9694 141.899 19.8367C142.16 19.7039 142.375 19.4966 142.518 19.2412L143.686 19.2413ZM139.416 17.2592H142.523C142.538 17.0528 142.51 16.8455 142.44 16.6506C142.37 16.4555 142.261 16.2774 142.119 16.1273C141.976 15.9772 141.804 15.8586 141.612 15.7793C141.421 15.6998 141.216 15.6611 141.009 15.6659C140.798 15.6633 140.591 15.7027 140.397 15.7819C140.202 15.861 140.025 15.9783 139.876 16.1268C139.729 16.2752 139.611 16.452 139.532 16.6465C139.453 16.841 139.413 17.0493 139.416 17.2592Z" fill="white"/>
</g>
</g>
<defs>
<clipPath id="clip0_3122_705">
<rect width="163.902" height="56" fill="white" transform="translate(0.597565)"/>
</clipPath>
</defs>
</svg>
