<?xml version="1.0" encoding="UTF-8"?>
<svg version="1.1" xmlns="http://www.w3.org/2000/svg" width="280" height="280">
<path d="M0 0 C92.4 0 184.8 0 280 0 C280 92.4 280 184.8 280 280 C187.6 280 95.2 280 0 280 C0 187.6 0 95.2 0 0 Z " fill="#010101" transform="translate(0,0)"/>
<path d="M0 0 C0.86132034 -0.01283524 1.72264069 -0.02567047 2.61006165 -0.03889465 C3.53820175 -0.04628159 4.46634186 -0.05366852 5.42260742 -0.0612793 C6.38075851 -0.06935104 7.33890961 -0.07742279 8.32609558 -0.08573914 C10.35442297 -0.09956998 12.38277353 -0.1102966 14.41113281 -0.11816406 C17.50590318 -0.13537474 20.59960454 -0.17926974 23.6940918 -0.22338867 C25.66608916 -0.23351617 27.63809559 -0.24203209 29.61010742 -0.2487793 C30.99320854 -0.27504143 30.99320854 -0.27504143 32.4042511 -0.30183411 C38.14606653 -0.28254321 41.32492774 0.38694237 45.71557617 4.17700195 C47.19389877 7.13364715 46.775904 9.91929932 46.71557617 13.17700195 C47.4194043 13.15379883 48.12323242 13.1305957 48.84838867 13.10668945 C54.6641246 13.00039663 60.37054273 13.21114284 66.15307617 13.86450195 C67.85270508 14.05592773 67.85270508 14.05592773 69.58666992 14.2512207 C73.53259007 15.41874015 75.21229639 16.93800777 77.71557617 20.17700195 C78.23901367 22.7121582 78.23901367 22.7121582 78.09057617 25.23950195 C78.04030273 26.4944043 78.04030273 26.4944043 77.98901367 27.7746582 C77.7368465 29.99012696 77.31950307 32.0335565 76.71557617 34.17700195 C77.28405273 34.35875977 77.8525293 34.54051758 78.43823242 34.7277832 C80.87277596 35.52033077 83.29567848 36.34082711 85.71557617 37.17700195 C86.71331055 37.51924805 86.71331055 37.51924805 87.73120117 37.8684082 C91.98032764 39.48492371 94.55997707 41.13525364 96.71557617 45.17700195 C96.55712961 52.80004223 93.44309098 59.00523527 90.34057617 65.86450195 C89.15408565 68.53525538 87.976145 71.20976258 86.79760742 73.8840332 C86.47900253 74.60445801 86.16039764 75.32488281 85.83213806 76.06713867 C81.44505864 86.01112293 77.24542981 96.03519151 73.02807617 106.05200195 C72.61801331 107.02523407 72.20795044 107.99846619 71.78546143 109.00119019 C69.43470755 114.58052288 67.08669161 120.16100157 64.74005127 125.74206543 C63.5415328 128.59066215 62.3401943 131.438062 61.13847351 134.28530884 C59.99450773 136.99794709 58.85510408 139.71249706 57.71557617 142.42700195 C57.14770386 143.77060791 57.14770386 143.77060791 56.56835938 145.14135742 C52.57975031 154.6836904 50.02538192 163.86486128 48.3425293 174.06762695 C47.42511766 179.1037946 46.50547657 182.46868454 42.71557617 186.17700195 C40.43727049 187.31615479 39.16776417 187.30962997 36.63639832 187.32417297 C35.35574745 187.33490593 35.35574745 187.33490593 34.04922485 187.34585571 C33.1104953 187.34854462 32.17176575 187.35123352 31.20458984 187.35400391 C30.21746506 187.3605751 29.23034027 187.3671463 28.21330261 187.37391663 C24.93671601 187.39367653 21.66017527 187.40531782 18.38354492 187.4152832 C17.26629847 187.41935873 16.14905201 187.42343426 14.9979496 187.42763329 C9.08538624 187.44850485 3.17284616 187.46280225 -2.73974609 187.47216797 C-8.85330989 187.48323867 -14.96651033 187.5176434 -21.07994556 187.55733967 C-25.77508735 187.58345747 -30.47014191 187.59185549 -35.16534996 187.59544945 C-37.4192316 187.60032739 -39.67310904 187.6119755 -41.92691994 187.63048744 C-45.07999268 187.65477698 -48.23211668 187.65393231 -51.38525391 187.64697266 C-52.7842392 187.66618774 -52.7842392 187.66618774 -54.21148682 187.68579102 C-58.39381425 187.65210925 -60.69232374 187.5338418 -64.34062195 185.33512878 C-67.08569712 182.28737971 -67.41045183 179.81133439 -67.46142578 175.86083984 C-67.48067863 174.55917625 -67.48067863 174.55917625 -67.50032043 173.23121643 C-67.50770737 172.29680222 -67.5150943 171.362388 -67.52270508 170.3996582 C-67.53077682 169.43676376 -67.53884857 168.47386932 -67.54716492 167.48179626 C-67.56099322 165.44507645 -67.57172098 163.40833359 -67.57958984 161.37158203 C-67.59683891 158.25484608 -67.64074037 155.1391611 -67.68481445 152.02270508 C-67.69493846 150.04419725 -67.70345548 148.06568042 -67.71020508 146.0871582 C-67.72771317 145.15476822 -67.74522125 144.22237823 -67.76325989 143.26173401 C-67.74152786 136.79221089 -67.74152786 136.79221089 -65.37158203 133.60253906 C-59.59467701 129.65689063 -51.01266378 130.10517581 -44.28442383 131.17700195 C-33.33209265 134.57263177 -24.89656613 141.3051965 -18.96411133 150.98168945 C-16.05875932 156.5086149 -12.28442383 163.89133965 -12.28442383 170.17700195 C-9.30222255 169.62861133 -9.30222255 169.62861133 -6.28442383 168.17700195 C-4.90478701 165.45804667 -4.90478701 165.45804667 -4.28442383 162.17700195 C-1.3626295 151.2833984 4.03553074 142.04820901 13.95776367 136.2980957 C20.32231558 132.94138902 26.80328099 130.20301951 33.71557617 128.17700195 C33.38557617 126.52700195 33.05557617 124.87700195 32.71557617 123.17700195 C31.97694336 122.95786133 31.23831055 122.7387207 30.47729492 122.51293945 C18.3056118 118.70832186 7.18738475 114.03601879 0.73022461 102.40161133 C-2.46396361 96.18946597 -5.17501084 89.84315658 -7.28442383 83.17700195 C-8.93442383 83.17700195 -10.58442383 83.17700195 -12.28442383 83.17700195 C-12.65954102 84.23918945 -13.0346582 85.30137695 -13.42114258 86.39575195 C-18.90120494 101.64579717 -18.90120494 101.64579717 -23.28442383 107.17700195 C-23.96504883 108.0587207 -23.96504883 108.0587207 -24.65942383 108.95825195 C-30.58528487 115.71373354 -39.18479024 120.44320375 -48.05786133 121.7199707 C-54.40774377 121.86213225 -59.81651805 121.53230777 -65.28442383 118.17700195 C-67.35821537 115.06631465 -67.54238945 114.32478891 -67.59082031 110.78491211 C-67.60680771 109.90034332 -67.6227951 109.01577454 -67.63926697 108.10440063 C-67.64462967 107.15124969 -67.64999237 106.19809875 -67.65551758 105.21606445 C-67.66454605 104.23334564 -67.67357452 103.25062683 -67.68287659 102.23812866 C-67.69738765 100.15853933 -67.70626794 98.07890426 -67.70996094 95.99926758 C-67.72185369 92.8207487 -67.77102837 89.64417329 -67.8215332 86.46606445 C-67.83099783 84.44524059 -67.83823268 82.42440481 -67.84301758 80.40356445 C-67.8625499 79.45446198 -67.88208221 78.5053595 -67.90220642 77.52749634 C-67.87328281 73.2878745 -67.63707332 70.7836334 -65.47729492 67.06835938 C-60.61914464 64.19054241 -56.1832051 64.55744999 -50.63989258 64.6887207 C-49.51496902 64.69579544 -48.39004547 64.70287018 -47.23103333 64.7101593 C-43.64398234 64.73811051 -40.05850171 64.80085479 -36.47192383 64.86450195 C-34.0377016 64.88958368 -31.60345487 64.91239706 -29.16918945 64.93286133 C-23.20706663 64.98793969 -17.24585743 65.0715749 -11.28442383 65.17700195 C-11.29330627 64.43419983 -11.30218872 63.69139771 -11.31134033 62.92608643 C-11.39152126 55.9225029 -11.45240569 48.9190786 -11.49167252 41.91516495 C-11.51253895 38.3144191 -11.54083803 34.7140528 -11.58618164 31.11352539 C-11.62967508 27.63812282 -11.65356804 24.16308508 -11.6639328 20.68743134 C-11.67490998 18.71754412 -11.70613083 16.74780348 -11.73760986 14.77813721 C-11.73791199 13.57719421 -11.73821411 12.37625122 -11.73852539 11.13891602 C-11.74740784 10.08190491 -11.75629028 9.0248938 -11.76544189 7.93585205 C-11.16028594 4.46501659 -10.02583262 3.32262415 -7.28442383 1.17700195 C-4.5355655 0.26071584 -2.83839161 0.03691618 0 0 Z " fill="#FDFDFD" transform="translate(134.284423828125,45.822998046875)"/>
<path d="M0 0 C13.98165138 0 13.98165138 0 19.4375 0.6875 C20.57058594 0.81511719 21.70367187 0.94273438 22.87109375 1.07421875 C26.8170139 2.24173819 28.49672021 3.76100582 31 7 C31.5234375 9.53515625 31.5234375 9.53515625 31.375 12.0625 C31.34148437 12.89910156 31.30796875 13.73570313 31.2734375 14.59765625 C31.02127032 16.81312501 30.60392689 18.85655455 30 21 C30.56847656 21.18175781 31.13695312 21.36351563 31.72265625 21.55078125 C34.15719979 22.34332881 36.58010231 23.16382516 39 24 C39.66515625 24.22816406 40.3303125 24.45632812 41.015625 24.69140625 C45.26475146 26.30792175 47.8444009 27.95825168 50 32 C49.84155344 39.62304027 46.72751481 45.82823332 43.625 52.6875 C42.43850948 55.35825342 41.26056883 58.03276063 40.08203125 60.70703125 C39.76342636 61.42745605 39.44482147 62.14788086 39.11656189 62.89013672 C34.72948247 72.83412098 30.52985364 82.85818956 26.3125 92.875 C25.90243713 93.84823212 25.49237427 94.82146423 25.06988525 95.82418823 C22.71913137 101.40352093 20.37111544 106.98399962 18.0244751 112.56506348 C16.82595662 115.4136602 15.62461813 118.26106005 14.42289734 121.10830688 C13.27893156 123.82094513 12.13952791 126.53549511 11 129.25 C10.62141846 130.1457373 10.24283691 131.04147461 9.8527832 131.96435547 C6.54786289 139.87103411 3.90697805 147.6345446 2.3125 156.0625 C2.18294922 156.73732422 2.05339844 157.41214844 1.91992188 158.10742188 C1.60782781 159.73724643 1.30308927 161.36847689 1 163 C0.67 163 0.34 163 0 163 C0 109.21 0 55.42 0 0 Z " fill="#E9E9E9" transform="translate(181,59)"/>
<path d="M0 0 C0.33 0.66 0.66 1.32 1 2 C2.87732843 2.80396825 2.87732843 2.80396825 5.125 3.4375 C18.11364507 7.58808452 18.11364507 7.58808452 21 13 C20.84155344 20.62304027 17.72751481 26.82823332 14.625 33.6875 C13.43850948 36.35825342 12.26056883 39.03276063 11.08203125 41.70703125 C10.76342636 42.42745605 10.44482147 43.14788086 10.11656189 43.89013672 C5.72947576 53.83413619 1.53048398 63.85844124 -2.6875 73.875 C-3.51062529 75.82732617 -4.33378582 77.77963749 -5.15698242 79.73193359 C-10.80756782 93.13955287 -16.43141349 106.55809066 -22 120 C-22.33 120 -22.66 120 -23 120 C-22.49382365 110.00128362 -20.3767767 100.38848993 -18.3125 90.625 C-17.94740525 88.87553051 -17.58291075 87.12593565 -17.21899414 85.3762207 C-16.48993222 81.87499064 -15.75771829 78.37444592 -15.02246094 74.87451172 C-13.64507774 68.31541485 -12.29179305 61.75140008 -10.9375 55.1875 C-10.46376852 52.89708849 -9.9898076 50.60672441 -9.515625 48.31640625 C-9.15500977 46.57447998 -9.15500977 46.57447998 -8.78710938 44.79736328 C-8.21888275 42.05598707 -7.64990248 39.31477447 -7.08007812 36.57373047 C-6.27187895 32.68589078 -5.4658106 28.7976139 -4.66091919 24.90908813 C-4.3491016 23.40467328 -4.03651911 21.90041673 -3.72311401 20.39633179 C-3.28607088 18.2984834 -2.85173822 16.20008987 -2.41796875 14.1015625 C-2.16813232 12.89838379 -1.9182959 11.69520508 -1.66088867 10.45556641 C-0.9962721 6.98050805 -0.47192554 3.50597263 0 0 Z " fill="#D3D3D5" transform="translate(210,78)"/>
</svg>
