<svg width="127" height="36" viewBox="0 0 127 36" fill="none" xmlns="http://www.w3.org/2000/svg">
<path d="M23.9143 29.8169C23.5649 30.6408 22.4459 30.7593 21.9317 30.0269L20.5872 28.1121C20.4308 27.8893 20.3593 27.6179 20.3856 27.3469L22.5105 5.44501C22.584 4.6865 23.3668 4.21236 24.0731 4.49844L31.4164 7.47263C32.3428 7.84782 32.782 8.90921 32.3918 9.82931L23.9143 29.8169Z" fill="#CBCBCC"/>
<path d="M22.9764 34.1224C22.8046 34.9583 21.8091 35.316 21.1446 34.7807L18.6607 32.7798C18.2697 32.4648 18.1308 31.9312 18.3186 31.4655L22.0376 22.2443C22.093 22.1071 22.1211 21.9604 22.1204 21.8124L22.0313 3.47797C22.028 2.79781 22.6172 2.2661 23.2935 2.33895L27.4171 2.78321C28.4664 2.89625 29.1903 3.88832 28.9778 4.92205L22.9764 34.1224Z" fill="#EAEAEA"/>
<path fill-rule="evenodd" clip-rule="evenodd" d="M21.1877 36C22.1757 36 22.9767 35.199 22.9767 34.211L22.9767 1.78898C22.9767 0.800953 22.1757 -7.00214e-08 21.1877 -1.56397e-07L13.4976 -8.28685e-07C12.5096 -9.15061e-07 11.7087 0.800952 11.7087 1.78898L11.7087 12.396L2.73569 12.396C1.74767 12.396 0.946713 13.1969 0.946712 14.185L0.946712 21.4937C0.946712 22.157 1.31855 22.7652 1.96074 22.9313C2.71386 23.126 3.85721 23.2932 5.29128 23.1114C6.71008 22.639 8.00765 21.971 8.94875 21.0299C10.155 19.8237 10.9124 18.0319 11.3846 16.1498C11.5572 15.4618 12.6409 15.4618 12.8135 16.1498C13.2857 18.0319 14.0431 19.8237 15.2493 21.0299C16.4555 22.2361 18.2473 22.9936 20.1294 23.4658C20.8174 23.6384 20.8174 24.7221 20.1294 24.8947C18.2473 25.3669 16.4555 26.1243 15.2493 27.3305C14.0431 28.5367 13.2857 30.3285 12.8135 32.2106C12.6409 32.8986 11.5572 32.8986 11.3846 32.2106C10.9124 30.3285 10.155 28.5367 8.94875 27.3305C8.03957 26.4213 6.79769 25.7671 5.43522 25.2978C3.84386 25.0584 2.65848 25.2419 1.91419 25.4552C1.31885 25.6259 0.992389 26.2007 0.992389 26.82L0.992388 34.211C0.992388 35.199 1.79334 36 2.78136 36L13.4875 36L13.4976 36L21.1877 36Z" fill="white"/>
<path d="M47.538 5.62019V16.069H54.5699V21.0211H47.538V35.3325H42.0907V0.668135H56.5012V5.62019H47.538Z" fill="white"/>
<path d="M60.0138 35.3325V0.668135H65.4611V30.3805H74.4243V35.3325H60.0138Z" fill="white"/>
<path d="M77.6951 35.3325V0.668135H83.1423V35.3325H77.6951Z" fill="white"/>
<path d="M98.6726 22.4077H103.823V27.0131C103.823 32.5594 101.05 35.7287 95.7013 35.7287C90.3531 35.7287 87.58 32.5594 87.58 27.0131V8.98759C87.58 3.44129 90.3531 0.271973 95.7013 0.271973C101.05 0.271973 103.823 3.44129 103.823 8.98759V12.355H98.6726V8.64095C98.6726 6.16492 97.5831 5.22403 95.8499 5.22403C94.1167 5.22403 93.0272 6.16492 93.0272 8.64095V27.3597C93.0272 29.8358 94.1167 30.7271 95.8499 30.7271C97.5831 30.7271 98.6726 29.8358 98.6726 27.3597V22.4077Z" fill="white"/>
<path d="M120.458 35.3325L115.159 21.5163L113.475 24.6856V35.3325H108.028V0.668135H113.475V15.6729H113.574L120.606 0.668135H126.054L118.477 16.1186L126.054 35.3325H120.458Z" fill="white"/>
</svg>
