<svg width="165" height="56" viewBox="0 0 165 56" fill="none" xmlns="http://www.w3.org/2000/svg">
<g clip-path="url(#clip0_3122_735)">
<mask id="mask0_3122_735" style="mask-type:luminance" maskUnits="userSpaceOnUse" x="0" y="0" width="165" height="56">
<path d="M164.402 0H0.5V56H164.402V0Z" fill="white"/>
</mask>
<g mask="url(#mask0_3122_735)">
<path d="M157.573 0.594238H7.32927C3.88571 0.594238 1.09415 3.3858 1.09415 6.82936V49.1708C1.09415 52.6144 3.88571 55.4059 7.32927 55.4059H157.573C161.017 55.4059 163.808 52.6144 163.808 49.1708V6.82936C163.808 3.3858 161.017 0.594238 157.573 0.594238Z" fill="black" stroke="#A2A2A1" stroke-width="1.18829"/>
<path d="M54.2462 13.0751C54.158 12.8049 54.0415 12.5627 53.897 12.3486C53.7552 12.1318 53.5852 11.9471 53.3872 11.7946C53.1918 11.642 52.9697 11.5257 52.7207 11.4453C52.4718 11.365 52.1989 11.3249 51.9019 11.3249C51.4147 11.3249 50.9719 11.4507 50.573 11.7022C50.1743 11.9538 49.8571 12.3245 49.6217 12.8142C49.3861 13.304 49.2684 13.9048 49.2684 14.6168C49.2684 15.3287 49.3875 15.9294 49.6257 16.4192C49.8639 16.9089 50.1864 17.2795 50.5931 17.5311C50.9999 17.7827 51.4576 17.9085 51.9661 17.9085C52.437 17.9085 52.8518 17.8082 53.2105 17.6074C53.5718 17.4041 53.8529 17.1177 54.0535 16.7483C54.257 16.3764 54.3586 15.9388 54.3586 15.4356L54.6638 15.4999H52.1909V14.6168H55.3221V15.4999C55.3221 16.177 55.1776 16.7658 54.8885 17.2661C54.6022 17.7667 54.2061 18.1547 53.7003 18.4304C53.1973 18.7034 52.6191 18.8399 51.9661 18.8399C51.2382 18.8399 50.5986 18.6686 50.0472 18.326C49.4985 17.9835 49.0703 17.4964 48.7626 16.8647C48.4575 16.2331 48.3049 15.4838 48.3049 14.6168C48.3049 13.9664 48.3919 13.3816 48.5658 12.8624C48.7425 12.3405 48.9914 11.8963 49.3125 11.5296C49.6337 11.163 50.0137 10.882 50.4526 10.6866C50.8916 10.4912 51.3747 10.3936 51.9019 10.3936C52.3354 10.3936 52.7394 10.4591 53.1142 10.5903C53.4915 10.7187 53.8275 10.902 54.1218 11.1402C54.4189 11.3757 54.6665 11.6581 54.8644 11.9873C55.0626 12.3138 55.199 12.6764 55.2739 13.0751H54.2462ZM57.0272 18.7274V10.506H61.989V11.3891H58.0228V14.1671H61.7321V15.0503H58.0228V17.8443H62.0533V18.7274H57.0272ZM63.3338 11.3891V10.506H69.4999V11.3891H66.9147V18.7274H65.9191V11.3891H63.3338ZM75.2114 10.506V18.7274H74.2158V10.506H75.2114ZM76.758 11.3891V10.506H82.9241V11.3891H80.3388V18.7274H79.3432V11.3891H76.758ZM94.5772 14.6168C94.5772 15.4838 94.4202 16.2331 94.1076 16.8647C93.794 17.4964 93.3646 17.9835 92.8186 18.326C92.2727 18.6686 91.649 18.8399 90.9478 18.8399C90.2467 18.8399 89.6231 18.6686 89.0771 18.326C88.5312 17.9835 88.1016 17.4964 87.7885 16.8647C87.4754 16.2331 87.3189 15.4838 87.3189 14.6168C87.3189 13.7496 87.4754 13.0003 87.7885 12.3686C88.1016 11.737 88.5312 11.25 89.0771 10.9074C89.6231 10.5648 90.2467 10.3936 90.9478 10.3936C91.649 10.3936 92.2727 10.5648 92.8186 10.9074C93.3646 11.25 93.794 11.737 94.1076 12.3686C94.4202 13.0003 94.5772 13.7496 94.5772 14.6168ZM93.614 14.6168C93.614 13.9048 93.4946 13.304 93.2561 12.8142C93.0206 12.3245 92.7007 11.9538 92.2967 11.7022C91.8953 11.4507 91.4457 11.3249 90.9478 11.3249C90.4501 11.3249 89.9991 11.4507 89.5951 11.7022C89.1936 11.9538 88.8738 12.3245 88.6357 12.8142C88.4001 13.304 88.2823 13.9048 88.2823 14.6168C88.2823 15.3287 88.4001 15.9294 88.6357 16.4192C88.8738 16.9089 89.1936 17.2795 89.5951 17.5311C89.9991 17.7827 90.4501 17.9085 90.9478 17.9085C91.4457 17.9085 91.8953 17.7827 92.2967 17.5311C92.7007 17.2795 93.0206 16.9089 93.2561 16.4192C93.4946 15.9294 93.614 15.3287 93.614 14.6168ZM102.77 10.506V18.7274H101.807L97.327 12.2723H97.246V18.7274H96.2505V10.506H97.2148L101.711 16.9771H101.791V10.506H102.77Z" fill="white"/>
<path d="M131.918 40.7979H134.285V24.9347H131.918V40.7979ZM153.245 30.6493L150.531 37.5265H150.449L147.631 30.6493H145.081L149.307 40.2611L146.896 45.6083H149.366L155.877 30.6493H153.245ZM139.816 38.9962C139.041 38.9962 137.958 38.608 137.958 37.6491C137.958 36.4247 139.306 35.9553 140.469 35.9553C141.509 35.9553 142.001 36.1794 142.632 36.4856C142.449 37.9553 141.183 38.9962 139.816 38.9962ZM140.103 30.3023C138.388 30.3023 136.613 31.0577 135.878 32.731L137.98 33.6083C138.429 32.731 139.264 32.4456 140.142 32.4456C141.367 32.4456 142.613 33.1796 142.632 34.4861V34.6492C142.203 34.4043 141.285 34.0372 140.163 34.0372C137.897 34.0372 135.591 35.2816 135.591 37.6082C135.591 39.7308 137.449 41.0982 139.53 41.0982C141.121 41.0982 142.001 40.384 142.55 39.5469H142.632V40.7721H144.92V34.6898C144.92 31.8735 142.815 30.3023 140.103 30.3023ZM125.469 32.5804H122.102V27.1429H125.469C127.239 27.1429 128.244 28.6082 128.244 29.8616C128.244 31.0909 127.239 32.5804 125.469 32.5804ZM125.408 24.9347H119.735V40.7979H122.102V34.788H125.408C128.033 34.788 130.612 32.8886 130.612 29.8616C130.612 26.835 128.033 24.9347 125.408 24.9347ZM94.4713 38.9992C92.8354 38.9992 91.466 37.6291 91.466 35.7492C91.466 33.8473 92.8354 32.4579 94.4713 32.4579C96.0863 32.4579 97.353 33.8473 97.353 35.7492C97.353 37.6291 96.0863 38.9992 94.4713 38.9992ZM97.1903 31.5375H97.1084C96.5765 30.9039 95.5543 30.3315 94.2667 30.3315C91.5678 30.3315 89.0948 32.7033 89.0948 35.7492C89.0948 38.7741 91.5678 41.125 94.2667 41.125C95.5543 41.125 96.5765 40.5525 97.1084 39.8988H97.1903V40.675C97.1903 42.7404 96.0863 43.8437 94.3077 43.8437C92.8563 43.8437 91.957 42.8013 91.5888 41.9225L89.5244 42.7811C90.1168 44.2116 91.6906 45.9701 94.3077 45.9701C97.0884 45.9701 99.439 44.3345 99.439 40.3478V30.6588H97.1903V31.5375ZM101.075 40.7979H103.446V24.9347H101.075V40.7979ZM106.941 35.5648C106.88 33.4795 108.557 32.4167 109.763 32.4167C110.703 32.4167 111.5 32.8871 111.766 33.5613L106.941 35.5648ZM114.3 33.7654C113.85 32.56 112.481 30.3315 109.681 30.3315C106.9 30.3315 104.59 32.5189 104.59 35.7283C104.59 38.7538 106.88 41.125 109.945 41.125C112.419 41.125 113.85 39.6127 114.444 38.7334L112.603 37.5066C111.991 38.4063 111.152 38.9992 109.945 38.9992C108.741 38.9992 107.881 38.447 107.33 37.3635L114.546 34.3791L114.3 33.7654ZM56.8095 31.9875V34.2769H62.288C62.1243 35.5648 61.695 36.505 61.0409 37.1591C60.2434 37.9562 58.9963 38.8356 56.8095 38.8356C53.4364 38.8356 50.7995 36.1168 50.7995 32.7439C50.7995 29.3709 53.4364 26.6517 56.8095 26.6517C58.629 26.6517 59.9573 27.3675 60.9386 28.2874L62.5542 26.6721C61.1841 25.364 59.365 24.3623 56.8095 24.3623C52.1888 24.3623 48.3049 28.1239 48.3049 32.7439C48.3049 37.3635 52.1888 41.125 56.8095 41.125C59.3032 41.125 61.1841 40.3071 62.6558 38.7741C64.1685 37.2614 64.639 35.1355 64.639 33.4181C64.639 32.8871 64.5976 32.3965 64.5159 31.9875H56.8095ZM70.8674 38.9992C69.2317 38.9992 67.821 37.6499 67.821 35.7283C67.821 33.7863 69.2317 32.4579 70.8674 32.4579C72.5025 32.4579 73.9132 33.7863 73.9132 35.7283C73.9132 37.6499 72.5025 38.9992 70.8674 38.9992ZM70.8674 30.3315C67.882 30.3315 65.4498 32.6006 65.4498 35.7283C65.4498 38.8356 67.882 41.125 70.8674 41.125C73.8517 41.125 76.2844 38.8356 76.2844 35.7283C76.2844 32.6006 73.8517 30.3315 70.8674 30.3315ZM82.6843 38.9992C81.0497 38.9992 79.6385 37.6499 79.6385 35.7283C79.6385 33.7863 81.0497 32.4579 82.6843 32.4579C84.32 32.4579 85.7302 33.7863 85.7302 35.7283C85.7302 37.6499 84.32 38.9992 82.6843 38.9992ZM82.6843 30.3315C79.7 30.3315 77.2678 32.6006 77.2678 35.7283C77.2678 38.8356 79.7 41.125 82.6843 41.125C85.6697 41.125 88.1019 38.8356 88.1019 35.7283C88.1019 32.6006 85.6697 30.3315 82.6843 30.3315Z" fill="white"/>
<path d="M25.2606 27.5688L10.8987 42.8125C10.8992 42.8157 10.9003 42.8183 10.9008 42.8215C11.3413 44.4766 12.853 45.6954 14.6474 45.6954C15.3646 45.6954 16.038 45.5016 16.6155 45.161L16.6615 45.1341L32.8277 35.8058L25.2606 27.5688Z" fill="#EB3131"/>
<path d="M39.791 24.9735L39.7772 24.964L32.7978 20.918L24.9346 27.915L32.8252 35.8044L39.7677 31.7986C40.985 31.1415 41.8112 29.8583 41.8112 28.3785C41.8112 26.9096 40.9961 25.6328 39.791 24.9735Z" fill="#F6B60B"/>
<path d="M10.8983 13.8809C10.8119 14.1992 10.7666 14.5328 10.7666 14.879V41.8152C10.7666 42.1609 10.8114 42.4954 10.8988 42.8126L25.7552 27.959L10.8983 13.8809Z" fill="#5778C5"/>
<path d="M25.367 28.3468L32.8008 20.9152L16.6529 11.553C16.066 11.2014 15.3809 10.9985 14.6478 10.9985C12.8535 10.9985 11.3398 12.2195 10.8992 13.8767L10.8987 13.8809L25.367 28.3468Z" fill="#3BAD49"/>
</g>
</g>
<defs>
<clipPath id="clip0_3122_735">
<rect width="163.902" height="56" fill="white" transform="translate(0.5)"/>
</clipPath>
</defs>
</svg>
